<svg id="Layer_1" enable-background="new 0 0 800 800" viewBox="0 0 800 800" xmlns="http://www.w3.org/2000/svg"><g><path clip-rule="evenodd" d="m66.7 221.1c0-85.3 69.2-154.5 154.5-154.5s154.5 69.2 154.5 154.5-69.2 154.5-154.5 154.5c-85.4 0-154.5-69.1-154.5-154.5z" fill="#1c274c" fill-rule="evenodd"/><path clip-rule="evenodd" d="m424.4 578.9c0-85.3 69.2-154.5 154.5-154.5s154.5 69.2 154.5 154.5-69.2 154.5-154.5 154.5c-85.3-.1-154.5-69.2-154.5-154.5z" fill="#8e93a6" fill-rule="evenodd"/><path d="m66.7 583.3c0-70.7 0-106.1 22-128 22-22 57.3-22 128-22s106.1 0 128 22c22 22 22 57.3 22 128s0 106.1-22 128c-22 22-57.3 22-128 22s-106.1 0-128-22-22-57.3-22-128z" fill="#1c274c"/><path d="m433.3 216.7c0-70.7 0-106.1 22-128s57.3-22 128-22 106.1 0 128 22 22 57.3 22 128 0 106.1-22 128c-22 22-57.3 22-128 22s-106.1 0-128-22c-22-22-22-57.3-22-128z" fill="#8e93a6"/></g></svg>