<svg id="Layer_1" enable-background="new 0 0 800 800" viewBox="0 0 800 800" xmlns="http://www.w3.org/2000/svg"><path d="m280.7 687.3c58.5 30.7 87.8 46.1 119.3 46.1v-333.4l-312.1-164.2c-.5.7-.9 1.5-1.4 2.2-19.9 33.8-19.9 75.9-19.9 160.1v3.9c0 84.2 0 126.2 19.9 160.1 19.9 33.8 55.8 52.6 127.5 90.3z" fill="#1c274c"/><path d="m585.9 147.7-66.7-35c-58.5-30.7-87.7-46-119.2-46s-60.7 15.3-119.3 46l-66.7 35c-70.1 36.8-106 55.6-126.1 88l312.1 164.3 312.1-164.2c-20.2-32.5-56.1-51.3-126.2-88.1z" fill="#b1b6c4"/><path d="m713.4 238c-.4-.8-.9-1.5-1.4-2.2l-312 164.2v333.3c31.5 0 60.7-15.4 119.3-46.1l66.7-35c71.7-37.6 107.6-56.5 127.5-90.3s19.9-75.9 19.9-160.1v-3.9c-.1-84-.1-126.1-20-159.9z" fill="#8e93a6"/></svg>