<svg fill="none" height="800" viewBox="0 0 24 24" width="800" xmlns="http://www.w3.org/2000/svg"><g fill="#1c274c"><path d="m22 14v-2c0-.839 0-1.5847-.0129-2.25h-19.9742c-.0129.6653-.0129 1.411-.0129 2.25v2c0 3.7712 0 5.6569 1.17157 6.8284 1.17158 1.1716 3.05719 1.1716 6.82843 1.1716h4c3.7712 0 5.6569 0 6.8284-1.1716 1.1716-1.1715 1.1716-3.0572 1.1716-6.8284z"/><path d="m7.75 2.5c0-.41421-.33579-.75-.75-.75s-.75.33579-.75.75v1.57926c-1.43933.11525-2.38423.39811-3.07843 1.09231s-.97706 1.6391-1.09231 3.07843h19.84144c-.1152-1.43933-.3981-2.38423-1.0923-3.07843s-1.6391-.97706-3.0784-1.09231v-1.57926c0-.41421-.3358-.75-.75-.75s-.75.33579-.75.75v1.5129c-.6653-.0129-1.411-.0129-2.25-.0129h-4c-.83903 0-1.58473 0-2.25.0129z"/></g></svg>