<svg id="Layer_1" enable-background="new 0 0 800 800" viewBox="0 0 800 800" xmlns="http://www.w3.org/2000/svg"><g><path d="m231.4 66.7c13.9 0 25.1 10.8 25.1 24.1v48.7c22.3-.4 47.2-.4 75.3-.4h133.9c28.1 0 53 0 75.3.4v-48.7c0-13.3 11.2-24.1 25.1-24.1s25.1 10.8 25.1 24.1v50.8c48.2 3.7 79.8 12.8 103 35.2 23.2 22.3 32.7 52.8 36.6 99.1l2.7 24.1h-636-30.8v-24.1c3.9-46.3 13.3-76.7 36.6-99.1 23.2-22.3 54.9-31.4 103-35.2v-50.8c0-13.3 11.2-24.1 25.1-24.1z" fill="#1c274c"/><path d="m733.3 466.7v-66.7c0-28-.1-77.8-.5-100h-665.8c-.4 22.2-.3 72-.3 100v66.7c0 125.7 0 188.6 39.1 227.6 39.1 39.1 101.9 39.1 227.6 39.1h133.3c125.7 0 188.6 0 227.6-39.1s39-101.9 39-227.6z" fill="#8e93a6"/><g fill="#1c274c"><path d="m600 566.7c0 18.4-14.9 33.3-33.3 33.3s-33.3-14.9-33.3-33.3 14.9-33.3 33.3-33.3 33.3 14.9 33.3 33.3z"/><path d="m600 433.3c0 18.4-14.9 33.3-33.3 33.3s-33.3-14.9-33.3-33.3 14.9-33.3 33.3-33.3 33.3 14.9 33.3 33.3z"/><path d="m433.3 566.7c0 18.4-14.9 33.3-33.3 33.3s-33.3-14.9-33.3-33.3 14.9-33.3 33.3-33.3c18.4-.1 33.3 14.9 33.3 33.3z"/><path d="m433.3 433.3c0 18.4-14.9 33.3-33.3 33.3s-33.3-14.9-33.3-33.3 14.9-33.3 33.3-33.3 33.3 14.9 33.3 33.3z"/><path d="m266.7 566.7c0 18.4-14.9 33.3-33.3 33.3s-33.4-14.9-33.4-33.3 14.9-33.3 33.3-33.3 33.4 14.9 33.4 33.3z"/><path d="m266.7 433.3c0 18.4-14.9 33.3-33.3 33.3s-33.4-14.9-33.4-33.3 14.9-33.3 33.3-33.3 33.4 14.9 33.4 33.3z"/></g></g></svg>