<svg id="Layer_1" enable-background="new 0 0 800 800" viewBox="0 0 800 800" xmlns="http://www.w3.org/2000/svg"><g><path d="m207 41.7c13.9 0 25.2 10.3 25.2 23.1v46.6c22.4-.4 47.4-.4 75.6-.4h134.4c28.2 0 53.2 0 75.6.4v-46.7c0-12.7 11.3-23.1 25.2-23.1s25.2 10.3 25.2 23.1v48.6c48.4 3.5 80.1 12.2 103.4 33.6s32.8 50.4 36.7 94.7v33.4h-666.6v-33.3c3.9-44.3 13.4-73.4 36.7-94.7 23.3-21.4 55.1-30.1 103.4-33.6v-48.7c0-12.7 11.3-23 25.2-23z" fill="#1c274c"/><path d="m708.3 441.7v-66.7c0-28-.4-77.8-.9-100h-665.5c-.4 22.2 0 72 0 100v66.7c0 125.7 0 188.6 39 227.6 39 39.1 101.9 39.1 227.6 39.1h133.3c125.7 0 188.5 0 227.6-39.1 38.9-39.1 38.9-101.9 38.9-227.6z" fill="#8e93a6"/><path clip-rule="evenodd" d="m600 525c-41.4 0-75 33.6-75 75s33.6 75 75 75 75-33.6 75-75-33.6-75-75-75zm-125 75c0-69 56-125 125-125s125 56 125 125c0 25.5-7.6 49.2-20.7 68.9l46.7 46.7c9.8 9.8 9.8 25.6 0 35.4s-25.6 9.8-35.4 0l-46.7-46.7c-19.7 13.1-43.4 20.7-68.9 20.7-69 0-125-56-125-125z" fill="#1c274c" fill-rule="evenodd"/></g></svg>