<svg id="Layer_1" enable-background="new 0 0 800 800" viewBox="0 0 800 800" xmlns="http://www.w3.org/2000/svg"><g><path d="m333.4 87.5c-32.2 0-58.3 26.1-58.3 58.3s26.1 58.3 58.3 58.3h133.3c32.2 0 58.3-26.1 58.3-58.3s-26.1-58.3-58.3-58.3z" fill="#8e93a6"/><path d="m128.8 561c-28.6-114.4-42.9-171.6-12.9-210 30-38.5 89-38.5 206.9-38.5h154.4c117.9 0 176.9 0 206.9 38.5s15.7 95.7-12.9 210c-18.2 72.8-27.3 109.1-54.4 130.3s-64.6 21.2-139.6 21.2h-154.4c-75 0-112.5 0-139.6-21.2s-36.2-57.5-54.4-130.3z" fill="#8e93a6"/><g fill="#1c274c"><path d="m519.4 170.9c3.6-7.6 5.7-16.1 5.7-25.1 0-8.9-2-17.4-5.6-25 22.8.2 40.5 1.2 56.4 7.4 18.9 7.4 35.4 20 47.5 36.3 12.2 16.5 18 37.6 25.9 66.6l1.5 5.7 17.1 98.8c-13.6-9.4-31.2-15-53.9-18.3l-12-69.6c-9.5-34.7-12.9-45.5-18.7-53.4-6.5-8.8-15.4-15.6-25.6-19.6-7.4-2.7-16.3-3.6-38.3-3.8z"/><path d="m280.6 120.9c-3.6 7.6-5.6 16-5.6 25s2 17.5 5.7 25.1c-22.1.2-30.9 1.1-38.2 3.9-10.2 4-19.1 10.8-25.6 19.6-5.8 7.8-9.2 18.7-18.7 53.4l-12 69.6c-22.7 3.3-40.3 8.9-53.9 18.3l17.1-98.8 1.5-5.7c7.9-29.1 13.6-50.2 25.9-66.6 12.1-16.3 28.6-28.9 47.5-36.3 15.8-6.3 33.5-7.4 56.3-7.5z"/><path d="m291.7 445.8c0-13.8-11.2-25-25-25s-25 11.2-25 25v133.3c0 13.8 11.2 25 25 25s25-11.2 25-25z"/><path d="m533.4 420.8c13.8 0 25 11.2 25 25v133.3c0 13.8-11.2 25-25 25s-25-11.2-25-25v-133.3c0-13.8 11.1-25 25-25z"/><path d="m425 445.8c0-13.8-11.2-25-25-25s-25 11.2-25 25v133.3c0 13.8 11.2 25 25 25s25-11.2 25-25z"/></g></g></svg>