<svg id="Layer_1" enable-background="new 0 0 800 800" viewBox="0 0 800 800" xmlns="http://www.w3.org/2000/svg"><g><g fill="#1c274c"><path clip-rule="evenodd" d="m475 683.3v-541.6c0-24.3-.1-40-1.6-51.5-1.5-10.8-3.8-14.2-5.7-16.1s-5.3-4.3-16.1-5.7c-11.6-1.6-27.3-1.6-51.5-1.6s-40 .1-51.5 1.6c-10.8 1.5-14.2 3.8-16.1 5.7s-4.3 5.3-5.7 16.1c-1.6 11.6-1.6 27.3-1.6 51.5v541.7h149.8z" fill-rule="evenodd"/><path d="m275 291.7c0-13.8-11.2-25-25-25h-100c-13.8 0-25 11.2-25 25v391.7h150z" opacity=".7"/><path d="m675 458.3c0-13.8-11.2-25-25-25h-100c-13.8 0-25 11.2-25 25v225h150z" opacity=".7"/></g><path d="m66.7 683.3c-13.8 0-25 11.2-25 25s11.2 25 25 25h666.7c13.8 0 25-11.2 25-25s-11.2-25-25-25h-8.4-50-150-50-150-50-150-50z" fill="#8e93a6"/></g></svg>