<svg id="Layer_1" enable-background="new 0 0 800 800" viewBox="0 0 800 800" xmlns="http://www.w3.org/2000/svg"><g><path d="m66.7 400c0-157.1 0-235.7 48.8-284.5s127.4-48.8 284.5-48.8 235.7 0 284.5 48.8 48.8 127.4 48.8 284.5 0 235.7-48.8 284.5-127.4 48.8-284.5 48.8-235.7 0-284.5-48.8-48.8-127.4-48.8-284.5z" fill="#8e93a6"/><g fill="#1c274c"><path d="m351.4 250.6c9.5-10 9.1-25.8-.9-35.3s-25.8-9.1-35.3.9l-77.1 81-20-21c-9.5-10-25.3-10.4-35.3-.9s-10.4 25.3-.9 35.3l38.1 40c4.7 5 11.3 7.8 18.1 7.8s13.4-2.8 18.1-7.8z"/><path d="m433.3 275c-13.8 0-25 11.2-25 25s11.2 25 25 25h166.7c13.8 0 25-11.2 25-25s-11.2-25-25-25z"/><path d="m351.4 483.9c9.5-10 9.1-25.8-.9-35.3s-25.8-9.1-35.3.9l-77.1 81-20-21c-9.5-10-25.3-10.4-35.3-.9s-10.4 25.3-.9 35.3l38.1 40c4.7 5 11.3 7.8 18.1 7.8s13.4-2.8 18.1-7.8z"/><path d="m433.3 508.3c-13.8 0-25 11.2-25 25s11.2 25 25 25h166.7c13.8 0 25-11.2 25-25s-11.2-25-25-25z"/></g></g></svg>