<svg id="Layer_1" enable-background="new 0 0 800 800" viewBox="0 0 800 800" xmlns="http://www.w3.org/2000/svg"><g><path clip-rule="evenodd" d="m268.3 82.9c9.4 10.1 8.9 25.9-1.2 35.3l-142.9 133.4c-5.1 4.7-11.9 7.1-18.8 6.7-6.9-.5-13.3-3.8-17.7-9.2l-40.5-50c-8.7-10.7-7-26.5 3.7-35.2s26.5-7 35.2 3.7l23.6 29.2 123.2-115c10.1-9.5 26-9 35.4 1.1zm106.7 83.8c0-13.8 11.2-25 25-25h333.3c13.8 0 25 11.2 25 25s-11.2 25-25 25h-333.3c-13.8 0-25-11.2-25-25zm-106.7 382.9c9.4 10.1 8.9 25.9-1.2 35.3l-142.9 133.4c-5.1 4.7-11.9 7.1-18.8 6.7-6.9-.5-13.3-3.8-17.7-9.2l-40.5-50c-8.7-10.7-7-26.5 3.7-35.2s26.5-7 35.2 3.7l23.6 29.2 123.2-115c10.1-9.5 26-9 35.4 1.1zm106.7 83.7c0-13.8 11.2-25 25-25h333.3c13.8 0 25 11.2 25 25s-11.2 25-25 25h-333.3c-13.8 0-25-11.2-25-25z" fill="#1c274c" fill-rule="evenodd"/><g fill="#8e93a6"><path d="m268.3 316.3c9.4 10.1 8.9 25.9-1.2 35.3l-142.9 133.3c-5.1 4.7-11.9 7.1-18.8 6.7-6.9-.5-13.3-3.8-17.7-9.2l-40.5-50c-8.7-10.7-7-26.5 3.7-35.2s26.5-7 35.2 3.7l23.6 29.2 123.2-115c10.1-9.5 26-8.9 35.4 1.2z"/><path d="m375 400c0-13.8 11.2-25 25-25h333.3c13.8 0 25 11.2 25 25s-11.2 25-25 25h-333.3c-13.8 0-25-11.2-25-25z"/></g></g></svg>