<svg id="Layer_1" enable-background="new 0 0 800 800" viewBox="0 0 800 800" xmlns="http://www.w3.org/2000/svg"><g><path d="m92.6 174.9c3.7-13.3 17.5-21.1 30.8-17.4l56.8 15.8c30.6 8.5 54.8 32 63.2 62.6l71.6 259.5 5.3 18.2c21.1 7.9 39.2 22.6 50.7 42.2l10.3-3.2 295.7-76.8c13.4-3.5 27 4.5 30.5 17.9s-4.5 27-17.9 30.5l-294.6 76.6-11 3.4c-.2 42.4-29.5 81.1-73.7 92.5-53 13.8-107.5-16.7-121.7-68.2-14.2-51.4 17.3-104.3 70.3-118 2.6-.7 5.3-1.3 7.9-1.7l-71.7-259.6c-3.6-13.1-14.2-23.8-28.4-27.7l-56.7-15.8c-13.3-3.7-21.1-17.5-17.4-30.8z" fill="#1c274c"/><path d="m335.5 291 17.1 62.1c16.2 58.5 24.3 87.8 48 101.1 23.8 13.3 53.9 5.5 114.3-10.2l64-16.6c60.3-15.7 90.5-23.5 104.2-46.6 13.7-23 5.6-52.3-10.5-110.8l-17.1-62.1c-16.2-58.5-24.2-87.8-48-101.1s-53.9-5.5-114.3 10.2l-64 16.6c-60.3 15.7-90.5 23.5-104.2 46.6-13.8 23-5.7 52.3 10.5 110.8z" fill="#8e93a6"/></g></svg>