<svg id="Layer_1" enable-background="new 0 0 800 800" viewBox="0 0 800 800" xmlns="http://www.w3.org/2000/svg"><g><path clip-rule="evenodd" d="m600 466.7c0 147.3-119.4 266.7-266.7 266.7-41.2 0-80.2-9.3-115-26-12-5.7-25.5-7.7-38.3-4.3l-40.9 10.9c-32.2 8.6-61.7-20.9-53.1-53.1l11-40.9c3.4-12.8 1.4-26.4-4.3-38.3-16.7-34.8-26-73.8-26-115 0-147.3 119.4-266.7 266.6-266.7 147.3 0 266.7 119.4 266.7 266.7zm-383.3 33.3c18.4 0 33.3-14.9 33.3-33.3s-14.9-33.3-33.3-33.3-33.3 14.9-33.3 33.3c-.1 18.4 14.9 33.3 33.3 33.3zm116.6 0c18.4 0 33.3-14.9 33.3-33.3s-14.9-33.3-33.3-33.3-33.3 14.9-33.3 33.3 14.9 33.3 33.3 33.3zm116.7 0c18.4 0 33.3-14.9 33.3-33.3s-14.9-33.3-33.3-33.3-33.3 14.9-33.3 33.3 14.9 33.3 33.3 33.3z" fill="#1c274c" fill-rule="evenodd"/><path d="m599.5 483.6c3.6-1.5 7.1-3.1 10.6-4.7 9.7-4.7 20.7-6.3 31.2-3.5l33.2 8.9c26.2 7 50.1-16.9 43.1-43.1l-8.9-33.2c-2.8-10.4-1.2-21.4 3.5-31.2 13.5-28.3 21.1-60 21.1-93.4 0-119.7-97-216.7-216.7-216.7-90.3 0-167.8 55.3-200.3 133.9 5.6-.4 11.3-.5 16.9-.5 147.4-.1 266.8 119.3 266.8 266.6 0 5.7-.2 11.3-.5 16.9z" fill="#8e93a6"/></g></svg>