<svg id="Layer_1" enable-background="new 0 0 800 800" viewBox="0 0 800 800" xmlns="http://www.w3.org/2000/svg"><g><path d="m139.1 105.7c-39.1 39.1-39.1 101.9-39.1 227.6v133.3c0 125.7 0 188.6 39.1 227.6 39.1 39.1 101.9 39.1 227.6 39.1h66.7c125.7 0 188.6 0 227.6-39.1 39.1-39 39.1-101.9 39.1-227.6v-133.3c0-125.7 0-188.6-39.1-227.6-39-39.1-101.9-39.1-227.6-39.1h-66.7c-125.7.1-188.6.1-227.6 39.1z" fill="#8e93a6"/><g fill="#1c274c"><path d="m200 400c0-47.1 0-70.7 14.6-85.4 14.7-14.6 38.3-14.6 85.4-14.6h200c47.1 0 70.7 0 85.4 14.6 14.6 14.7 14.6 38.3 14.6 85.4v133.3c0 47.1 0 70.7-14.6 85.4-14.6 14.6-38.2 14.6-85.4 14.6h-200c-47.1 0-70.7 0-85.4-14.6-14.6-14.7-14.6-38.2-14.6-85.4z"/><path d="m233.3 175c-13.8 0-25 11.2-25 25s11.2 25 25 25h166.7c13.8 0 25-11.2 25-25s-11.2-25-25-25z"/></g></g></svg>