<svg xmlns="http://www.w3.org/2000/svg" version="1.1" xmlns:xlink="http://www.w3.org/1999/xlink" width="512" height="512" x="0" y="0" viewBox="0 0 800 800" style="enable-background:new 0 0 512 512" xml:space="preserve" class=""><g><path fill="#1c274c" d="M600 266.7c0 110.5-89.5 200-200 200s-200-89.5-200-200 89.5-200 200-200 200 89.5 200 200z" opacity="1" data-original="#1c274c"></path><path fill="#4e5a73" d="M452.7 459.7c-16.8 4.6-34.4 7-52.7 7-84.4 0-156.7-52.3-186-126.3-84.9 23.1-147.3 100.8-147.3 193 0 110.5 89.5 200 200 200s200-89.5 200-200c0-26.1-5-50.9-14-73.7z" opacity="1" data-original="#425172" class=""></path><path fill="#8e93a6" d="M452.7 459.7c9 22.8 14 47.7 14 73.7 0 59.2-25.8 112.5-66.7 149.1 35.4 31.7 82.1 50.9 133.3 50.9 110.5 0 200-89.5 200-200 0-92.2-62.4-169.9-147.3-193-23 58-72.4 102.7-133.3 119.3z" opacity="1" data-original="#8e93a6"></path></g></svg>