<svg id="Layer_1" enable-background="new 0 0 800 800" viewBox="0 0 800 800" xmlns="http://www.w3.org/2000/svg"><g><path d="m600 266.7c0 110.5-89.5 200-200 200s-200-89.5-200-200 89.5-200 200-200 200 89.5 200 200z" fill="#1c274c"/><path d="m452.7 459.7c-16.8 4.6-34.4 7-52.7 7-84.4 0-156.7-52.3-186-126.3-84.9 23.1-147.3 100.8-147.3 193 0 110.5 89.5 200 200 200s200-89.5 200-200c0-26.1-5-50.9-14-73.7z" fill="#425172"/><path d="m452.7 459.7c9 22.8 14 47.7 14 73.7 0 59.2-25.8 112.5-66.7 149.1 35.4 31.7 82.1 50.9 133.3 50.9 110.5 0 200-89.5 200-200 0-92.2-62.4-169.9-147.3-193-23 58-72.4 102.7-133.3 119.3z" fill="#8e93a6"/></g></svg>