<svg id="Layer_1" enable-background="new 0 0 800 800" viewBox="0 0 800 800" xmlns="http://www.w3.org/2000/svg"><g><path clip-rule="evenodd" d="m166.7 100h466.7l-339.5 339.5c-5.3-13.8-13.9-25.7-25.9-36.2-7.6-6.6-18.2-12.6-39.4-24.5l-97.1-54.7c-31.6-17.8-47.4-26.7-56.1-41s-8.7-31.6-8.7-66.2v-23c0-44.2 0-66.3 14.6-80.1 14.7-13.8 38.2-13.8 85.4-13.8z" fill="#1c274c" fill-rule="evenodd"/><path d="m733.3 216.8v-23c0-44.2 0-66.3-14.6-80.1-14.7-13.7-38.2-13.7-85.4-13.7l-339.4 339.5c1.6 4.3 3 8.8 4 13.4 2.1 9.5 2.1 20.6 2.1 42.9v89c0 30.3 0 45.5 8.4 57.3s23.3 17.6 53.1 29.3c62.6 24.5 93.9 36.7 116.2 22.8 22.3-14 22.3-45.8 22.3-109.5v-89c0-22.2 0-33.4 2.1-42.9 4.4-19.8 14.1-35.9 30-49.7 7.6-6.6 18.2-12.6 39.4-24.5l97.1-54.7c31.6-17.8 47.4-26.7 56.1-41 8.6-14.2 8.6-31.5 8.6-66.1z" fill="#8e93a6"/></g></svg>