<svg id="Layer_1" enable-background="new 0 0 800 800" viewBox="0 0 800 800" xmlns="http://www.w3.org/2000/svg"><g><path d="m733.3 466.7v-73.4c0-12.5-.1-34.9-.1-34.9l.1-25h-666.6v25 108.3c0 125.7 0 188.6 39.1 227.6 39.1 39.1 101.9 39.1 227.6 39.1h133.3c125.7 0 188.6 0 227.6-39.1s39-101.9 39-227.6z" fill="#1c274c"/><path d="m366.7 133.3-18.4-18.3c-9.1-9.1-13.7-13.7-18.5-17.6-20.6-17.1-46-27.6-72.7-30.1-6.2-.6-12.6-.6-25.5-.6-29.4 0-44.1 0-56.4 2.3-53.9 10.2-96 52.3-106.2 106.3-2.3 12.3-2.3 27-2.3 56.4v76.7 25h666.7l-1.6-25c-2.4-35-8.5-57.9-24.1-75.2-2.4-2.6-4.9-5.1-7.5-7.5-28.5-25.7-72.4-25.7-160.1-25.7h-12.5c-38.5 0-57.7 0-75.6-5.1-9.8-2.8-19.3-6.7-28.3-11.7-16.2-9.1-29.8-22.7-57-49.9z" fill="#8e93a6"/></g></svg>