<svg id="Layer_1" enable-background="new 0 0 800 800" viewBox="0 0 800 800" xmlns="http://www.w3.org/2000/svg"><g><path clip-rule="evenodd" d="m333.6 96.3-200 177.8c-21.3 19-33.6 46.2-33.6 74.7v330.1h-33.3c-13.8 0-25 11.2-25 25s11.2 25 25 25h666.7c13.8 0 25-11.2 25-25s-11.2-25-25-25h-33.4v-330.1c0-28.6-12.2-55.8-33.6-74.7l-200-177.8c-37.9-33.7-94.9-33.7-132.8 0zm-.3 149.3c-13.8 0-25 11.2-25 25s11.2 25 25 25h133.3c13.8 0 25-11.2 25-25s-11.2-25-25-25zm135.1 100c29.9 0 54.9 0 74.8 2.7 20.9 2.8 39.8 9 55 24.2s21.4 34.1 24.2 55c2.7 19.8 2.7 44.8 2.7 74.8v176.7h-50-350.1-50v-176.8c0-30 0-54.9 2.7-74.8 2.8-20.9 9-39.8 24.2-55s34.1-21.4 55-24.2c19.8-2.7 44.8-2.7 74.7-2.7h136.8z" fill="#1c274c" fill-rule="evenodd"/><path d="m468.4 345.6h-136.8c-29.9 0-54.9 0-74.7 2.7-20.9 2.8-39.8 9-55 24.2s-21.4 34.1-24.2 55c-2.7 19.8-2.7 44.8-2.7 74.7v176.7h450v-176.7c0-29.9 0-54.9-2.7-74.8-2.8-20.9-9-39.8-24.2-55s-34.1-21.4-55-24.2c-19.8-2.6-44.7-2.6-74.7-2.6z" fill="#8e93a6"/><g fill="#1c274c"><path d="m300 462.3c-13.8 0-25 11.2-25 25s11.2 25 25 25h200c13.8 0 25-11.2 25-25s-11.2-25-25-25z"/><path d="m300 562.3c-13.8 0-25 11.2-25 25s11.2 25 25 25h200c13.8 0 25-11.2 25-25s-11.2-25-25-25z"/></g></g></svg>