<svg id="Layer_1" enable-background="new 0 0 800 800" viewBox="0 0 800 800" xmlns="http://www.w3.org/2000/svg"><g><path clip-rule="evenodd" d="m333.3 54.2h-33.3c-94.3 0-141.4 0-170.7 29.3s-29.3 76.4-29.3 170.7v441.7h433.3v-116.7-50-275c0-94.3 0-141.4-29.3-170.7s-76.4-29.3-170.7-29.3z" fill="#8e93a6" fill-rule="evenodd"/><g fill="#1c274c"><path d="m100 695.8h-33.3c-13.8 0-25 11.2-25 25s11.2 25 25 25h504.1c13.8 0 25-11.2 25-25s-11.2-25-25-25h-37.4z"/><path d="m275 187.5h100c31.4 0 47.1 0 56.9 9.8s9.8 25.5 9.8 56.9 0 47.1-9.8 56.9-25.5 9.8-56.9 9.8h-100c-31.4 0-47.1 0-56.9-9.8s-9.8-25.5-9.8-56.9 0-47.1 9.8-56.9 25.5-9.8 56.9-9.8z"/><path d="m241.7 529.2c-13.8 0-25 11.2-25 25s11.2 25 25 25h166.7c13.8 0 25-11.2 25-25s-11.2-25-25-25z"/><path d="m533.3 579.2h52.4c12.5 0 22.6 10.1 22.6 22.6v2.4c0 41.4 33.6 75 75 75s75-33.6 75-75v-363.3c0-5.2 0-8.8-.2-12.3-1.9-33-16.7-64-41.4-86.1-2.6-2.3-5.4-4.6-9.5-7.9l-41.6-33.3c-10.8-8.6-26.5-6.9-35.1 3.9s-6.9 26.5 3.9 35.1l41.1 32.9c4.8 3.9 6.5 5.2 7.9 6.5 14.8 13.3 23.7 31.8 24.8 51.6.1 1.9.1 4.1.1 10.2v12.6h-25c-27.6 0-50 22.4-50 50v80.6c0 21.5 13.8 40.6 34.2 47.4l40.8 13.6v158.3c0 13.8-11.2 25-25 25s-25-11.2-25-25v-2.4c0-40.1-32.5-72.6-72.6-72.6h-52.4z"/></g></g></svg>