<svg id="Layer_1" enable-background="new 0 0 800 800" viewBox="0 0 800 800" xmlns="http://www.w3.org/2000/svg"><g><path d="m166 322.8c-66.2-26.5-99.3-39.7-99.3-56.2s33.1-29.6 99.3-56.1l93.6-37.4c66.2-26.5 99.3-39.7 140.4-39.7s74.2 13.2 140.4 39.7l93.6 37.4c66.2 26.5 99.3 39.7 99.3 56.2s-33.1 29.7-99.3 56.2l-93.6 37.4c-66.2 26.5-99.3 39.7-140.4 39.7s-74.2-13.2-140.4-39.7z" fill="#1c274c"/><path d="m192.2 333.3-26.2 10.5c-66.2 26.5-99.3 39.7-99.3 56.2s33.1 29.7 99.3 56.2l93.6 37.4c66.2 26.5 99.3 39.7 140.4 39.7s74.2-13.2 140.4-39.7l93.6-37.4c66.2-26.5 99.3-39.7 99.3-56.2s-33.1-29.7-99.3-56.2l-26.2-10.5-67.4 27c-66.2 26.5-99.3 39.7-140.4 39.7s-74.2-13.2-140.4-39.7z" fill="#1c274c" opacity=".7"/><path d="m192.2 466.7-26.2 10.5c-66.2 26.5-99.3 39.7-99.3 56.2s33.1 29.7 99.3 56.2l93.6 37.4c66.2 26.5 99.3 39.7 140.4 39.7s74.2-13.2 140.4-39.7l93.6-37.4c66.2-26.5 99.3-39.7 99.3-56.2 0-16.4-33.1-29.7-99.3-56.2l-26.2-10.5-67.4 27c-66.2 26.5-99.3 39.7-140.4 39.7s-74.2-13.2-140.4-39.7z" fill="#8e93a6"/></g></svg>