<svg xmlns="http://www.w3.org/2000/svg" version="1.1" xmlns:xlink="http://www.w3.org/1999/xlink" width="512" height="512" x="0" y="0" viewBox="0 0 1024 1024" style="enable-background:new 0 0 512 512" xml:space="preserve" class=""><g><path fill="#1c274c" d="M981 437.7 872.9 332.1c-16.1-15.7-37.4-24.4-59.9-24.4H674v-54.6c0-77.6-63.1-140.7-140.7-140.7H157.9c-77.6 0-140.7 63.1-140.7 140.7v423.1c0 65.5 53.2 118.7 118.7 118.7h23.9c16.9 0 30.7-13.8 30.7-30.7s-13.8-30.7-30.7-30.7h-23.9c-31.6 0-57.3-25.7-57.3-57.3V253.1c0-43.7 35.6-79.3 79.3-79.3h375.4c43.7 0 79.3 35.6 79.3 79.3v480.4H428.3c-16.9 0-30.7 13.8-30.7 30.7s13.8 30.7 30.7 30.7h256.8c16.9 0 30.7-13.8 30.7-30.7s-13.8-30.7-30.7-30.7H674V369.2h139c6.3 0 12.4 2.5 16.9 6.9L938 481.7c4.7 4.6 7.3 10.9 7.3 17.4l.2 234.4c-16.9 0-30.7 13.8-30.7 30.7s13.8 30.7 30.7 30.7c33.8 0 61.2-27.5 61.2-61.2V499c.1-22.9-9.3-45.3-25.7-61.3z" opacity="1" data-original="#303135" class=""></path><path fill="#8e93a6" d="M296.4 905.1c-77.7 0-140.9-63.2-140.9-140.9s63.2-140.9 140.9-140.9 140.9 63.2 140.9 140.9-63.2 140.9-140.9 140.9zm0-220.4c-43.8 0-79.5 35.6-79.5 79.5s35.6 79.5 79.5 79.5 79.5-35.6 79.5-79.5-35.6-79.5-79.5-79.5zm513.3 216.2c-75.4 0-136.7-61.3-136.7-136.7s61.3-136.7 136.7-136.7 136.7 61.3 136.7 136.7c0 75.3-61.3 136.7-136.7 136.7zm0-212c-41.5 0-75.2 33.7-75.2 75.2s33.7 75.2 75.2 75.2 75.2-33.7 75.2-75.2-33.6-75.2-75.2-75.2z" opacity="1" data-original="#ff623e" class=""></path></g></svg>