<svg id="Layer_1" enable-background="new 0 0 800 800" viewBox="0 0 800 800" xmlns="http://www.w3.org/2000/svg"><g><path clip-rule="evenodd" d="m540.6 161.2 98.8 98.9c67.1 67.2 100.6 100.8 92.8 136.9-7.8 36.2-52.2 52.9-141 86.2l-61.5 23.1c-23.8 8.9-35.7 13.4-44.8 21.3-4 3.5-7.6 7.4-10.7 11.7-7.1 9.9-10.5 22.1-17.2 46.6-15.3 55.8-23 83.6-41.3 94.1-7.7 4.4-16.4 6.7-25.3 6.7-21 0-41.4-20.5-82.3-61.4l-48.9-48.9-36-36-47.2-47.2c-40.6-40.6-60.9-60.9-61-81.8-.1-9 2.3-17.9 6.8-25.8 10.4-18.1 38.1-25.7 93.4-41 24.6-6.8 36.8-10.2 46.7-17.3 4.4-3.2 8.5-6.9 12-11.1 7.9-9.3 12.3-21.2 21-45.2l22.3-60.8c32.9-89.8 49.3-134.7 85.6-142.7 36.5-7.7 70.3 26.1 137.8 93.7z" fill="#8e93a6" fill-rule="evenodd"/><path d="m110.1 725.9 149.2-149.3-36-36-149.2 149.3c-9.9 9.9-9.9 26.1 0 36s26 9.9 36 0z" fill="#1c274c"/></g></svg>