<svg id="Layer_1" enable-background="new 0 0 800 800" viewBox="0 0 800 800" xmlns="http://www.w3.org/2000/svg"><g><path d="m100 434.6c0-36.8 0-55.1 13.1-65.9 4.6-3.8 10.3-6.9 16.6-9 17.7-5.9 41-.1 87.6 11.5 35.6 8.9 53.4 13.3 71.3 12.9 6.6-.2 13.2-.8 19.6-2 17.5-3.1 33.1-10.9 64.3-26.5l46.1-23c40-19.9 60-29.9 82.9-32.2s45.7 3.4 91.3 14.8l38.8 9.7c33 8.2 49.5 12.4 58.9 22.2s9.4 22.8 9.4 48.9v202.8c0 36.8 0 55.2-13.1 65.9-4.6 3.8-10.3 6.9-16.6 9-17.7 5.9-41 .1-87.6-11.5-35.6-8.9-53.4-13.3-71.3-12.9-6.6.2-13.2.8-19.6 2-17.5 3.1-33.1 10.9-64.3 26.5l-46.1 23c-40 19.9-60 29.9-82.9 32.2s-45.7-3.4-91.3-14.8l-38.8-9.7c-33-8.2-49.5-12.4-58.9-22.2s-9.4-22.8-9.4-48.9v-202.8z" fill="#8e93a6"/><path clip-rule="evenodd" d="m400 66.7c-110.5 0-200 85.1-200 190 0 104.1 63.8 225.6 163.4 269.1 23.2 10.1 49.9 10.1 73.1 0 99.7-43.5 163.5-165 163.5-269.1 0-105-89.5-190-200-190zm0 266.6c36.8 0 66.7-29.8 66.7-66.7s-29.9-66.6-66.7-66.6-66.7 29.8-66.7 66.7 29.9 66.6 66.7 66.6z" fill="#1c274c" fill-rule="evenodd"/></g></svg>