<svg xmlns="http://www.w3.org/2000/svg" version="1.1" xmlns:xlink="http://www.w3.org/1999/xlink" width="512" height="512" x="0" y="0" viewBox="0 0 850 850" style="enable-background:new 0 0 512 512" xml:space="preserve" fill-rule="evenodd" class=""><g><circle cx="425" cy="425" r="425" fill="#1c274c" opacity="1" data-original="#fdb0c7" class=""></circle><path fill="#8e93a6" d="M274 681c-.3 0-.7 0-1.001-.1-3.8-.5-6.5-4.1-6-7.9l70-496c.5-3.8 4.1-6.5 7.9-6s6.5 4.1 6 7.9l-70 496c-.5 3.6-3.5 6.1-6.899 6.1zM575.999 681c-3.4 0-6.4-2.5-6.9-6l-70-496c-.5-3.8 2.1-7.4 6-7.9 3.8-.5 7.4 2.1 7.9 6l70 496c.5 3.8-2.1 7.4-6 7.9h-1zM424.999 224a6.957 6.957 0 0 1-6.999-7v-41c0-3.9 3.1-7 6.999-7 3.9 0 7 3.1 7 7v41c0 3.9-3.1 7-7 7zM424.999 314a6.957 6.957 0 0 1-6.999-7v-40c0-3.9 3.1-7 6.999-7 3.9 0 7 3.1 7 7v40c0 3.9-3.1 7-7 7zM424.999 405a6.957 6.957 0 0 1-6.999-7v-40c0-3.9 3.1-7 6.999-7 3.9 0 7 3.1 7 7v40c0 3.9-3.1 7-7 7zM424.999 495a6.957 6.957 0 0 1-6.999-7v-40c0-3.9 3.1-7 6.999-7 3.9 0 7 3.1 7 7v40c0 3.9-3.1 7-7 7zM424.999 586a6.957 6.957 0 0 1-6.999-7v-40c0-3.9 3.1-7 6.999-7 3.9 0 7 3.1 7 7v40c0 3.9-3.1 7-7 7zM424.999 677a6.957 6.957 0 0 1-6.999-7v-41c0-3.9 3.1-7 6.999-7 3.9 0 7 3.1 7 7v41c0 3.9-3.1 7-7 7z" opacity="1" data-original="#ec298e" class=""></path></g></svg>