<svg xmlns="http://www.w3.org/2000/svg" version="1.1" xmlns:xlink="http://www.w3.org/1999/xlink" width="512" height="512" x="0" y="0" viewBox="0 0 274.446 234.422" style="enable-background:new 0 0 512 512" xml:space="preserve" class=""><g><path d="M149.798 140.041v10.5h-5c-2.2 0-4 1.8-4 4v26.846c15.686.275 28.319 13.068 28.319 28.82 0 4.512-1.038 8.781-2.886 12.583h49.539c1.399 6.039 6.8 10.544 13.264 10.544s11.865-4.505 13.264-10.544h11.208v-13.737c7.731-9.799 10.248-18.365 7.458-25.46l-.019-.042c.657-3.025.633-5.953-.11-8.768-2.421-9.161-11.675-14.864-18.329-17.87V116.54h-56v60.167h-5.208V154.54c0-2.2-1.8-4-4-4h-5v-10.5h-22.5zm3.875 3.5h14.75v7h-14.75zm27.625 49.166h5.208v3.667h-5.208zm47.736 34.11a7.103 7.103 0 0 1-6.399-4.026h12.798a7.104 7.104 0 0 1-6.399 4.026zm24.472-22.806v-6.465c2.384-2.907 4.23-5.746 5.537-8.513.15 4.38-1.698 9.39-5.537 14.978zm4.43-28.454a14.8 14.8 0 0 1 .471 3.666c-4.119-5.158-10.871-8.069-15.901-9.616v-9.349c5.976 2.894 13.475 7.886 15.43 15.299zm-34.097-48.516a6.333 6.333 0 1 1 0 12.666 6.333 6.333 0 0 1 0-12.666zm18.667 45.731c5.414 1.782 12.456 5.149 15.289 11.067-1.055 3.94-3.466 8.128-7.213 12.535h-8.076v-3.667h2.583v-6.333h-2.583v-3.333h2.583v-6.333h-2.583zm-56 10.269v3.333h-5.208v-3.333zM78.329 104.414l-1.571 2.297 6.599 1.143zM108.084 124.773l-9.764-6.68a10.12 10.12 0 0 1-.095 2.69 10.188 10.188 0 0 1-4.105 6.554l5.807 3.973 22.505 56.264a28.758 28.758 0 0 1 8.866-4.764zM35.392 112.012l-1.335-38.673c-.194-5.621 4.221-10.352 9.841-10.545a10.156 10.156 0 0 1 10.546 9.843l1.049 30.389.241.042c1.267-8.669 3.101-16.935 4.436-23.755 2.871-9.953-.883-21.865-9.42-23.992-8.535-2.129-20.912 2.508-25.945 17.15-6.809 20.174-8.268 33.304-5.682 55.521 1.362 7.01 4.225 11.28 7.778 13.858.091.353.19.705.314 1.055.11.313 10.086 32.303-24.058 70.713-4.586 5.16-4.122 13.061 1.038 17.647a12.458 12.458 0 0 0 8.3 3.157c3.446 0 6.878-1.417 9.348-4.195 19.242-21.647 27.359-42.15 30.332-58.588 5.87 12.044 11.836 28.977 15.438 52.017.964 6.167 6.282 10.571 12.334 10.571.642 0 1.293-.05 1.946-.152 6.82-1.065 11.485-7.459 10.419-14.28-8.186-52.372-28.057-78.679-37.399-88.499-.011-.239-.021-.473-.036-.72a69.276 69.276 0 0 1-.555-7.049l-10.479-1.816c-4.731-.82-8.286-4.899-8.451-9.699z" fill="#1c274c" opacity="1" data-original="#000000" class=""></path><path d="M96.058 120.406a8 8 0 0 0-6.517-9.248l-36.186-6.271-1.11-32.176a7.988 7.988 0 0 0-8.271-7.719 8 8 0 0 0-7.719 8.271l1.335 38.672a7.999 7.999 0 0 0 6.629 7.606l42.59 7.38a8 8 0 0 0 9.249-6.515zM48.199 33.663c0 12.427 10.074 22.5 22.5 22.5 12.428 0 22.5-10.073 22.5-22.5a22.7 22.7 0 0 0-.208-3.025H48.408a22.544 22.544 0 0 0-.209 3.025zM44.496 25.421a3.016 3.016 0 0 0 3.016 3.018h47.064a3.019 3.019 0 0 0 0-6.037h-.416c-.198-7.686-4.146-14.436-10.08-18.496v1.841a2.388 2.388 0 1 1-4.776 0V1.403A22.959 22.959 0 0 0 73.431 0v5.747a2.388 2.388 0 1 1-4.776 0V0c-2.05.21-4.018.693-5.873 1.403v4.344a2.389 2.389 0 1 1-4.776 0v-1.84c-5.933 4.06-9.881 10.81-10.079 18.495h-.418a3.017 3.017 0 0 0-3.013 3.019zM163.284 210.207c0-12.703-10.297-23-23-23s-23 10.297-23 23 10.297 23 23 23 23-10.297 23-23zm-11 0c0 6.627-5.373 12-12 12s-12-5.373-12-12 5.373-12 12-12 12 5.373 12 12zM267.49 69.379c-4.746-1.611-9.845.459-12.215 4.673-.323-.15-.656-.286-1.001-.403-5.228-1.774-10.904 1.025-12.68 6.254-1.773 5.229 1.026 10.905 6.255 12.68.107.036.214.059.321.091l-6.293 11.569 1.277.783 5.677-9.268 4.636-7.568-2.2-1.211-2.238 4.114c-3.863-1.736-5.846-6.155-4.458-10.245 1.418-4.177 5.833-6.48 10.033-5.343-.036.096-.08.188-.113.286a10.196 10.196 0 0 0-.167 6.042 8.53 8.53 0 0 1 .439-3.145 8.56 8.56 0 0 1 16.211 5.501 8.522 8.522 0 0 1-4.026 4.763 10.284 10.284 0 0 0 3.091-1.466 8.281 8.281 0 0 1 .658 6.782 8.309 8.309 0 0 1-10.539 5.199 8.256 8.256 0 0 1-3.717-2.566l3.46-3.256-1.73-1.821-5.965 6.22-7.701 8.031 1.084 1.038 9.018-8.486a10.44 10.44 0 0 0 5.158 3.842c5.489 1.862 11.45-1.077 13.314-6.567a10.481 10.481 0 0 0-1.55-9.677 10.183 10.183 0 0 0 2.366-3.847c1.823-5.363-1.046-11.181-6.405-12.999zM184.917 97.093c3.94 3.868 10.269 3.811 14.138-.128.079-.08.146-.168.222-.25l7.688 10.693 1.26-.811-5.883-9.139-4.804-7.463-2.046 1.456 2.734 3.802c-3.241 2.726-8.083 2.593-11.165-.434-3.147-3.092-3.304-8.068-.456-11.358.071.074.134.154.208.226a10.192 10.192 0 0 0 5.371 2.774 8.516 8.516 0 0 1-2.642-1.761 8.56 8.56 0 0 1-.11-12.106 8.562 8.562 0 0 1 12.106-.109 8.52 8.52 0 0 1 2.542 5.694 10.31 10.31 0 0 0 .022-3.421 8.277 8.277 0 0 1 6.394 2.353 8.31 8.31 0 0 1 .107 11.751 8.257 8.257 0 0 1-3.926 2.234l-1.43-4.531-2.392.768 3.013 8.075 3.89 10.424 1.406-.526-3.728-11.809a10.436 10.436 0 0 0 5.701-2.978c4.061-4.136 4.002-10.782-.134-14.845a10.479 10.479 0 0 0-9.39-2.806 10.174 10.174 0 0 0-2.438-3.802c-4.038-3.965-10.525-3.908-14.49.13-3.512 3.575-3.862 9.067-1.095 13.032-.275.226-.542.467-.798.727-3.871 3.939-3.814 10.268.125 14.138z" fill="#1c274c" opacity="1" data-original="#000000" class=""></path></g></svg>