<svg xmlns="http://www.w3.org/2000/svg" version="1.1" xmlns:xlink="http://www.w3.org/1999/xlink" width="512" height="512" x="0" y="0" viewBox="0 0 2.833 2.833" style="enable-background:new 0 0 512 512" xml:space="preserve" fill-rule="evenodd" class=""><g><circle cx="1.417" cy="1.417" r="1.417" fill="#1c274c" opacity="1" data-original="#673b8d" class=""></circle><g fill="#fafafa"><path d="M1.273 2.137h-.037a.033.033 0 0 0 .003-.014v-.12c0-.017-.012-.03-.027-.03s-.027.013-.027.03v.12c0 .005.001.01.003.014H.667a.027.027 0 0 1-.027-.03L.806.587A.027.027 0 0 1 .832.563h.353v.054c0 .017.012.03.027.03s.027-.013.027-.03V.563h.353c.014 0 .025.01.027.024l.06.553a.395.395 0 0 0-.316.387c0 .059.035.131.062.182.034.065.073.128.112.19-.107.021-.269.074-.269.202 0 .01.001.02.004.031l.001.005zm-.06-.285c-.016 0-.028-.013-.028-.03v-.12c0-.017.012-.03.027-.03s.027.013.027.03v.12c0 .017-.012.03-.027.03zm0-.301c-.016 0-.028-.013-.028-.03V1.4c0-.017.012-.03.027-.03s.027.013.027.03v.12c0 .016-.012.03-.027.03zm0-.301c-.016 0-.028-.014-.028-.03V1.1c0-.017.012-.03.027-.03s.027.013.027.03v.12c0 .016-.012.03-.027.03zm0-.301c-.016 0-.028-.014-.028-.03V.797c0-.017.012-.03.027-.03s.027.013.027.03v.12c0 .017-.012.03-.027.03z" fill="#8e93a6" opacity="1" data-original="#fafafa" class=""></path><path d="M1.757 2.135a.027.027 0 0 1-.024-.015c-.027-.054-.073-.128-.122-.205-.096-.151-.195-.307-.195-.388a.341.341 0 0 1 .682 0c0 .081-.099.237-.194.388-.05.077-.096.15-.123.205a.027.027 0 0 1-.024.015zm0-.426a.183.183 0 1 1 0-.365.183.183 0 0 1 0 .365zm0-.311a.13.13 0 1 0 0 .258.13.13 0 0 0 0-.258z" fill="#8e93a6" opacity="1" data-original="#fafafa" class=""></path><path d="M1.757 2.27c-.211 0-.436-.06-.436-.17 0-.081.118-.13.247-.153.04.063.084.13.118.197a.08.08 0 0 0 .143 0c.033-.067.077-.134.117-.197.13.023.247.072.247.154 0 .11-.224.169-.436.169z" fill="#8e93a6" opacity="1" data-original="#fafafa" class=""></path><path d="M1.757 2.137a.027.027 0 0 1-.024-.015l-.017-.034a.027.027 0 0 1 .048-.025.911.911 0 0 1 .02.04.027.027 0 0 1-.026.034z" fill="#8e93a6" opacity="1" data-original="#fafafa" class=""></path></g></g></svg>