<svg xmlns="http://www.w3.org/2000/svg" version="1.1" xmlns:xlink="http://www.w3.org/1999/xlink" width="512" height="512" x="0" y="0" viewBox="0 0 64 64" style="enable-background:new 0 0 512 512" xml:space="preserve" class=""><g><path fill="#8e93a6" d="M59.786 52.982c.788 1.333-.173 3.018-1.722 3.018H5.94c-1.55 0-2.51-1.68-1.73-3.02L30.28 8.9c.77-1.31 2.67-1.31 3.44 0z" opacity="1" data-original="#fab400" class=""></path><circle cx="30.5" cy="30.5" r="2.5" fill="#8e93a6" opacity="1" data-original="#dc9600" class=""></circle><path fill="#8e93a6" d="M46.46 51H33.39a.998.998 0 0 1-.95-1.32l1.33-4c.14-.4.52-.68.95-.68h2.66c.38 0 .73-.21.9-.55l.22-.45-5.2-2.31c.201-.267.34-.565.38-.92l.01-.01 5.26 2.34.77-1.55c.17-.34.52-.55.9-.55h1.11c.35 0 .68.19.86.49l4.73 8c.39.67-.09 1.51-.86 1.51zM30.332 40.971l.967.432a1.001 1.001 0 1 0 .814-1.83l-1.381-.613c.31-1.54.54-2.7.71-3.55.25-1.23-.69-2.38-1.95-2.38h-4.57c-1.48 0-2.41.88-2.66 2l-.6 2.68a1.087 1.087 0 0 0 2.12.47l.13-.6.91.4-2.63 11.85c-.14.62.33 1.2.96 1.2.713 0 1.055-.298 1.16-.77l1.36-6.13a1.41 1.41 0 0 1 2.64-.32l.32.64c.187.373.25.796.182 1.208l-.702 4.222a.99.99 0 0 0 1.95.33l.75-4.55a1.999 1.999 0 0 0-.18-1.21l-.4-.81a2.074 2.074 0 0 1-.17-1.331c.096-.47.183-.913.27-1.338zm-5.28-3.99-.91-.4.34-1.55h1z" opacity="1" data-original="#dc9600" class=""></path><path fill="#1c274c" d="M54.55 53.5H9.45a1.503 1.503 0 0 1-1.302-2.262L30.71 13.085a1.495 1.495 0 0 1 2.581.001l22.55 38.15c.588 1.01-.138 2.264-1.291 2.264zM31.571 13.594 9.01 51.745a.504.504 0 0 0 .44.755h45.1a.503.503 0 0 0 .428-.759L32.43 13.595a.494.494 0 0 0-.859-.001z" opacity="1" data-original="#00325a" class=""></path><circle cx="30.5" cy="29.5" r="2.5" fill="#1c274c" opacity="1" data-original="#00325a" class=""></circle><path fill="#1c274c" d="M46.46 50H33.39a.998.998 0 0 1-.95-1.32l1.33-4c.14-.4.52-.68.95-.68h2.66c.38 0 .73-.21.9-.55l.22-.45-5.2-2.31c.201-.267.34-.565.38-.92l.01-.01 5.26 2.34.77-1.55c.17-.34.52-.55.9-.55h1.11c.35 0 .68.19.86.49l4.73 8c.39.67-.09 1.51-.86 1.51zM30.332 39.971l.967.432a1.001 1.001 0 1 0 .814-1.83l-1.381-.613c.31-1.54.54-2.7.71-3.55.25-1.23-.69-2.38-1.95-2.38h-4.57c-1.48 0-2.41.88-2.66 2l-.6 2.68a1.087 1.087 0 0 0 2.12.47l.13-.6.91.4-2.63 11.85c-.14.62.33 1.2.96 1.2.713 0 1.055-.298 1.16-.77l1.36-6.13a1.41 1.41 0 0 1 2.64-.32l.32.64c.187.373.25.796.182 1.208l-.702 4.222a.99.99 0 0 0 1.95.33l.75-4.55a1.999 1.999 0 0 0-.18-1.21l-.4-.81a2.074 2.074 0 0 1-.17-1.331c.096-.47.183-.913.27-1.338zm-5.28-3.99-.91-.4.34-1.55h1z" opacity="1" data-original="#00325a" class=""></path></g></svg>