<svg xmlns="http://www.w3.org/2000/svg" version="1.1" xmlns:xlink="http://www.w3.org/1999/xlink" width="512" height="512" x="0" y="0" viewBox="0 0 850 850" style="enable-background:new 0 0 512 512" xml:space="preserve" fill-rule="evenodd" class=""><g><circle cx="425" cy="425" r="425" fill="#1c274c" opacity="1" data-original="#fdb0c7" class=""></circle><path fill="#8e93a6" d="M274 681h-1c-4-1-7-4-6-8l70-496c0-4 4-7 8-6h73v46c0 4 3 7 7 7s7-3 7-7v-46h73c4 0 7 2 8 6l70 496c0 4-2 8-6 8H432v-52c0-4-3-7-7-7s-7 3-7 7v52zm151-95c-4 0-7-3-7-7v-40c0-4 3-7 7-7s7 3 7 7v40c0 4-3 7-7 7zm0-91c-4 0-7-3-7-7v-40c0-4 3-7 7-7s7 3 7 7v40c0 4-3 7-7 7zm0-90c-4 0-7-3-7-7v-40c0-4 3-7 7-7s7 3 7 7v40c0 4-3 7-7 7zm0-91c-4 0-7-3-7-7v-40c0-4 3-7 7-7s7 3 7 7v40c0 4-3 7-7 7z" opacity="1" data-original="#ec298e" class=""></path></g></svg>