<svg id="Layer_1" enable-background="new 0 0 800 800" viewBox="0 0 800 800" xmlns="http://www.w3.org/2000/svg"><g><path d="m66.7 520.5c0 28.2 22.7 51 68.2 96.4l48.2 48.2c45.5 45.5 68.2 68.2 96.4 68.2s51-22.7 96.4-68.2l289.3-289.3c45.5-45.5 68.2-68.2 68.2-96.4s-22.7-51-68.2-96.4l-48.2-48.2c-45.5-45.5-68.2-68.2-96.4-68.2-25.1 0-45.9 18-82.1 53.9l-35 34.9-35.8 35.8-35 35-35.7 35.8-35 35-35.8 35.8-35 35-35.8 35.8-34.9 35c-35.9 36.1-53.8 56.8-53.8 81.9z" fill="#8e93a6"/><g fill="#1c274c"><path d="m441.3 123c-.9-.9-1.9-1.7-2.8-2.5l-35 34.9c.7 1 1.6 2 2.5 2.9l47.1 47.1c9.8 9.8 25.6 9.8 35.4 0s9.8-25.6 0-35.4z"/><path d="m370.5 193.8c-.9-.9-1.9-1.7-2.9-2.5l-35 35c.7 1 1.6 2 2.5 2.9l70.7 70.7c9.8 9.8 25.6 9.8 35.4 0s9.8-25.6 0-35.4z"/><path d="m299.8 264.5c-.9-.9-1.9-1.7-2.9-2.5l-35 35c.7 1 1.6 2 2.5 2.9l47.1 47.1c9.8 9.8 25.6 9.8 35.4 0s9.8-25.6 0-35.4z"/><path d="m229.1 335.2c-.9-.9-1.9-1.7-2.9-2.5l-35 35c.7 1 1.6 2 2.5 2.9l70.7 70.7c9.8 9.8 25.6 9.8 35.4 0s9.8-25.6 0-35.4z"/><path d="m158.4 405.9c-.9-.9-1.9-1.7-2.9-2.5l-34.9 35c.7 1 1.6 1.9 2.5 2.8l47.1 47.1c9.8 9.8 25.6 9.8 35.4 0s9.8-25.6 0-35.4z"/></g></g></svg>