<svg id="Layer_1" enable-background="new 0 0 800 800" viewBox="0 0 800 800" xmlns="http://www.w3.org/2000/svg"><g><path d="m253.6 153.5c57.9-57.9 86.8-86.8 122.7-86.8s64.9 28.9 122.7 86.8l147.3 147.3c57.9 57.9 86.8 86.8 86.8 122.7 0 36-28.9 64.9-86.8 122.7-57.9 57.9-86.8 86.8-122.7 86.8-36 0-64.9-28.9-122.7-86.8l-147.3-147.3c-57.9-57.9-86.8-86.8-86.8-122.7s28.9-64.9 86.8-122.7z" fill="#1c274c"/><g fill="#8e93a6"><path d="m278.3 423.6-184 184c-11.4 11.4-17.1 17.1-20.6 23.1-9.3 16.1-9.3 36 0 52.1 3.4 5.9 9.1 11.6 20.5 23.1 11.4 11.4 17.1 17.1 23.1 20.6 16.1 9.3 36 9.3 52.1 0 5.9-3.4 11.6-9.1 23.1-20.5l184-184z"/><path d="m622 276.4 12.4-12.4c11.4-11.4 17.1-17.1 20.6-23.1 9.3-16.1 9.3-36 0-52.1-3.4-5.9-9.1-11.6-20.6-23.1-11.4-11.4-17.1-17.1-23.1-20.6-16.1-9.3-36-9.3-52.1 0-5.9 3.4-11.6 9.1-23.1 20.6l-12.4 12.4z"/></g></g></svg>