<svg xmlns="http://www.w3.org/2000/svg" version="1.1" xmlns:xlink="http://www.w3.org/1999/xlink" width="512" height="512" x="0" y="0" viewBox="0 0 512 512" style="enable-background:new 0 0 512 512" xml:space="preserve" class=""><g><path fill="#ffffff" d="M184 116h80v32h-80zM288 324v-32H72l-32 32H24v32h344v-32z" opacity="1" data-original="#ffffff"></path><path d="m511.78 250.14-18.42-76.84c-.14-.6-.35-1.17-.62-1.72-4.81-9.61-14.47-15.58-25.22-15.58h-76.78c-16.977 0-30.74 13.763-30.74 30.74V316h-64v-17.14c31.82-5.88 56-33.84 56-67.33v-23.06c0-33.49-24.18-61.45-56-67.33a68.29 68.29 0 0 0-12.47-1.14H272v-24a8 8 0 0 0-8-8h-80a8 8 0 0 0-8 8v24H68.47c-4.26 0-8.43.39-12.47 1.14-31.82 5.88-56 33.84-56 67.33v23.06c0 32.854 23.276 60.371 54.201 66.956L36.686 316H24a8 8 0 0 0-8 8v32a8 8 0 0 0 8 8h40.679c3.821 22.671 23.58 40 47.321 40s43.499-17.329 47.321-40h17.359c3.821 22.671 23.58 40 47.321 40s43.499-17.329 47.321-40h105.625c3.952 0 7.114-3.238 7.058-7.19a54.68 54.68 0 0 1-.006-.81c0-30.93 25.07-56 56-56s56 25.07 56 56c0 .271-.002.541-.006.81-.055 3.952 3.106 7.19 7.058 7.19H504a8 8 0 0 0 8-8V252c0-.63-.07-1.25-.22-1.86zM192 124h64v16h-64zm168 224h-88.679c-3.821-22.671-23.58-40-47.321-40s-43.499 17.329-47.321 40H159.32c-3.821-22.671-23.58-40-47.321-40S68.5 325.329 64.678 348H32v-16h8a8 8 0 0 0 5.657-2.343L75.314 300H280v24a8 8 0 0 0 8 8h72z" fill="#4e5a73" opacity="1" data-original="#000000" class=""></path><circle cx="440" cy="356" r="48" fill="#4e5a73" opacity="1" data-original="#000000" class=""></circle><g fill="#fff"><path d="M56 141.14v157.72c4.04.75 8.21 1.14 12.47 1.14H72V140h-3.53c-4.26 0-8.43.39-12.47 1.14zM283.53 140H280v160h3.53c4.26 0 8.43-.39 12.47-1.14V141.14a68.29 68.29 0 0 0-12.47-1.14zM487.831 242.136l-8.801-48c-.66-3.599-3.122-6.136-5.954-6.136H439.12c-12.748 0-23.12 13.552-23.12 30.21v3.58c0 16.658 10.372 30.21 23.12 30.21h42.758c1.875 0 3.646-1.123 4.807-3.046s1.583-4.435 1.146-6.818z" fill="#ffffff" opacity="1" data-original="#ffffff"></path></g></g></svg>