<svg xmlns="http://www.w3.org/2000/svg" version="1.1" xmlns:xlink="http://www.w3.org/1999/xlink" width="512" height="512" x="0" y="0" viewBox="0 0 64 64" style="enable-background:new 0 0 512 512" xml:space="preserve" class=""><g><path fill="#8e93a6" d="M9.552 53.61h44.9L41.046 3.83A4.506 4.506 0 0 0 36.7.5h-9.4a4.506 4.506 0 0 0-4.345 3.33z" opacity="1" data-original="#eefaff" class=""></path><g fill="#ff87a8"><path d="M43.201 11.833H20.799l-2.423 9h27.248zM48.675 32.167h-33.35l-2.423 9h38.196zM53 52.5H11A8.51 8.51 0 0 0 2.5 61v1A1.5 1.5 0 0 0 4 63.5h56a1.5 1.5 0 0 0 1.5-1.5v-1a8.51 8.51 0 0 0-8.5-8.5z" fill="#1c274c" opacity="1" data-original="#ff87a8" class=""></path></g></g></svg>