<svg id="Layer_1" enable-background="new 0 0 800 800" viewBox="0 0 800 800" xmlns="http://www.w3.org/2000/svg"><g><path d="m533.3 200c0 73.6-59.7 133.3-133.3 133.3s-133.3-59.7-133.3-133.3 59.7-133.3 133.3-133.3 133.3 59.7 133.3 133.3z" fill="#1c274c"/><path d="m482.6 730.7c-24.2 1.7-51.6 2.6-82.6 2.6-266.7 0-266.7-67.2-266.7-150s119.4-150 266.7-150c96 0 180.2 28.5 227.1 71.4-17.2-4.7-41.3-4.7-77.1-4.7-55 0-82.5 0-99.6 17.1s-17.1 44.6-17.1 99.6 0 82.5 17.1 99.6c7.9 7.9 18.1 12.1 32.2 14.4z" fill="#8e93a6"/><path clip-rule="evenodd" d="m550 733.3c-55 0-82.5 0-99.6-17.1s-17.1-44.6-17.1-99.6 0-82.5 17.1-99.6c17.1-17 44.6-17 99.6-17s82.5 0 99.6 17.1 17.1 44.6 17.1 99.6 0 82.5-17.1 99.6c-17.1 17-44.6 17-99.6 17zm-38.1-182.2c-7.6-7.6-19.9-7.6-27.5 0s-7.6 19.9 0 27.5l38.1 38.1-38.1 38.1c-7.6 7.6-7.6 19.9 0 27.5s19.9 7.6 27.5 0l38.1-38.1 38.1 38.1c7.6 7.6 19.9 7.6 27.5 0s7.6-19.9 0-27.5l-38.1-38.1 38.1-38.1c7.6-7.6 7.6-19.9 0-27.5s-19.9-7.6-27.5 0l-38.1 38.1z" fill="#1c274c" fill-rule="evenodd"/></g></svg>