<svg fill="none" height="800" viewBox="0 0 24 24" width="800" xmlns="http://www.w3.org/2000/svg"><g fill="#1c274c"><path d="m21 12c0 5.5228-2.0723 10-4.6286 10h-7.71426c.86646-.5615 1.65546-1.5494 2.19906-2.7237.8738-1.8879 1.4009-4.4609 1.4009-7.2763 0-2.81538-.5271-5.38837-1.4009-7.27625-.5436-1.17436-1.3326-2.16228-2.19906-2.72375h7.71426c2.5563 0 4.6286 4.47715 4.6286 10z"/><path clip-rule="evenodd" d="m4.31038 5.13411c-.8014 1.73142-1.31038 4.15843-1.31038 6.86589 0 2.7075.50898 5.1345 1.31038 6.8659.82312 1.7783 1.85419 2.6341 2.80391 2.6341.94971 0 1.98078-.8558 2.8039-2.6341.80141-1.7314 1.31041-4.1584 1.31041-6.8659 0-2.70746-.509-5.13447-1.31041-6.86589-.82312-1.77834-1.85419-2.63411-2.8039-2.63411-.94972 0-1.98079.85577-2.80391 2.63411zm1.26105 6.86589c0 3.3137.69076 6 1.54286 6 .78678 0 1.43601-2.2903 1.53092-5.25h-1.01664c-.42605 0-.77143-.3358-.77143-.75s.34538-.75.77143-.75h1.01664c-.09491-2.95973-.74414-5.25-1.53092-5.25-.8521 0-1.54286 2.68629-1.54286 6z" fill-rule="evenodd"/></g></svg>