<svg id="Layer_1" enable-background="new 0 0 800 800" viewBox="0 0 800 800" xmlns="http://www.w3.org/2000/svg"><g><path d="m684 421.6 17.3-64.4c20.1-75.2 30.2-112.8 22.6-145.3-6-25.7-19.5-49-38.7-67-24.4-22.8-62-32.9-137.1-53-75.2-20.1-112.8-30.2-145.3-22.6-25.7 6-49 19.5-67 38.7-19.5 20.9-29.7 51.4-44.9 107-2.5 9.3-5.2 19.4-8.1 30.2l-17.3 64.4c-20.1 75.2-30.2 112.8-22.6 145.3 6 25.7 19.5 49 38.7 67 24.4 22.8 62 32.9 137.1 53 67.8 18.2 105 28.1 135.5 24.4 3.3-.4 6.6-1 9.8-1.7 25.7-6 49-19.5 67-38.7 22.8-24.5 32.8-62.1 53-137.3z" fill="#1c274c"/><path d="m554.1 599.2c-7 21.3-19.2 40.5-35.6 55.9-24.4 22.8-62 32.9-137.1 53-75.2 20.1-112.8 30.2-145.3 22.6-25.7-6-49-19.5-67-38.7-22.8-24.4-32.9-62-53-137.1l-17.3-64.4c-20.1-75.2-30.2-112.8-22.6-145.3 6-25.7 19.5-49 38.7-67 24.4-22.8 62-32.9 137.1-53 14.2-3.8 27.1-7.3 38.8-10.3-2.5 9.3-5.2 19.4-8.1 30.2l-17.3 64.4c-20.1 75.2-30.2 112.8-22.6 145.3 6 25.7 19.5 49 38.7 67 24.4 22.8 62 32.9 137.1 53 67.8 18.2 105 28.1 135.5 24.4z" fill="#8e93a6"/></g></svg>