<svg id="Layer_1" enable-background="new 0 0 800 800" viewBox="0 0 800 800" xmlns="http://www.w3.org/2000/svg"><g><path clip-rule="evenodd" d="m233.3 154.2h133.3c62.9 0 94.3 0 113.8 19.5s19.5 51 19.5 113.8v408.3h50 150 33.3c13.8 0 25 11.2 25 25s-11.2 25-25 25h-666.5c-13.8 0-25-11.2-25-25s11.2-25 25-25h33.3v-408.3c0-62.9 0-94.3 19.5-113.8 19.6-19.5 51-19.5 113.8-19.5zm-58.3 100c0-13.8 11.2-25 25-25h200c13.8 0 25 11.2 25 25s-11.2 25-25 25h-200c-13.8 0-25-11.2-25-25zm0 100c0-13.8 11.2-25 25-25h200c13.8 0 25 11.2 25 25s-11.2 25-25 25h-200c-13.8 0-25-11.2-25-25zm0 100c0-13.8 11.2-25 25-25h200c13.8 0 25 11.2 25 25s-11.2 25-25 25h-200c-13.8 0-25-11.2-25-25zm125 141.6c13.8 0 25 11.2 25 25v75h-50v-75c0-13.8 11.2-25 25-25z" fill="#1c274c" fill-rule="evenodd"/><path d="m500 54.2h66.7c62.9 0 94.3 0 113.8 19.5s19.5 51 19.5 113.8v508.3h-200v-408.3c0-62.9 0-94.3-19.5-113.8-19.1-19.1-49.5-19.5-109.6-19.5v-50c2.8-12.9 7.5-22.6 15.3-30.5 19.5-19.5 50.9-19.5 113.8-19.5z" fill="#8e93a6"/></g></svg>